Coordinates
version=1
nRows=9
nColumns=24
inDegrees=yes

Units are S.I. units (second, meters, Newtons, ...)
Angles are in degrees.

endheader
time	pelvis_tilt	pelvis_list	pelvis_rotation	pelvis_tx	pelvis_ty	pelvis_tz	hip_flexion_r	hip_adduction_r	hip_rotation_r	knee_angle_r	ankle_angle_r	subtalar_angle_r	mtp_angle_r	hip_flexion_l	hip_adduction_l	hip_rotation_l	knee_angle_l	ankle_angle_l	subtalar_angle_l	mtp_angle_l	lumbar_extension	lumbar_bending	lumbar_rotation
      0.84133333	      3.42152213	     -2.73150610	      1.14039993	     -0.23650816	      1.02972202	      0.37047072	     -8.81188522	      6.21288294	      0.92639800	     -8.73925024	      5.03314431	    -12.42166857	      3.14419095	     16.41080874	     -1.43964707	      0.87033503	    -46.91577955	      7.77162585	     -7.39277157	      2.82825273	    -15.13743937	      9.86962955	      2.29271772
      0.84550000	      3.42176769	     -2.64067253	      1.15724407	     -0.23150538	      1.03013945	      0.37047648	     -9.27461772	      6.11881941	      0.93294888	     -8.38077648	      4.75984551	    -12.47111955	      3.16491425	     16.51782246	     -1.25589092	      0.94482511	    -45.50852274	      7.91859952	     -7.43665533	      2.75254969	    -15.19121744	      9.74273570	      2.36415844
      0.84966667	      3.37689818	     -2.56781923	      1.17907408	     -0.22651467	      1.03044284	      0.37047146	     -9.65206825	      6.04188667	      0.88686743	     -8.09784908	      4.48277248	    -12.47359862	      3.18387193	     16.66575437	     -1.09207372	      1.03124911	    -44.08026687	      8.03365137	     -7.41713748	      2.69631665	    -15.16737462	      9.62626530	      2.40908008
      0.85383333	      3.36506909	     -2.49122699	      1.20636646	     -0.22151042	      1.03076110	      0.37044121	    -10.08460726	      5.96097565	      0.85291129	     -7.77231630	      4.21375623	    -12.49355248	      3.21509226	     16.75639608	     -0.92267723	      1.12220020	    -42.60754209	      8.08547343	     -7.46135034	      2.62584986	    -15.20862866	      9.52886918	      2.44859296
      0.85800000	      3.31204045	     -2.41481944	      1.23827551	     -0.21650801	      1.03099653	      0.37040471	    -10.45261948	      5.88021567	      0.79268666	     -7.48935716	      3.95207722	    -12.48615244	      3.25022111	     16.87394803	     -0.74992838	      1.23333930	    -41.09747596	      8.08676106	     -7.49020776	      2.56142537	    -15.19051228	      9.42131032	      2.47358514
      0.86216667	      3.29821381	     -2.34408404	      1.27214181	     -0.21148694	      1.03125948	      0.37036229	    -10.86352285	      5.80604189	      0.71715350	     -7.20516585	      3.68583315	    -12.46885111	      3.29509047	     16.92445873	     -0.58845342	      1.34011182	    -39.54296254	      8.04128586	     -7.53669993	      2.49436810	    -15.20438647	      9.32176550	      2.48788993
      0.86633333	      3.24549264	     -2.28036682	      1.31112961	     -0.20646237	      1.03141043	      0.37029889	    -11.21846441	      5.73853893	      0.62409538	     -6.95183703	      3.43616669	    -12.44159931	      3.34661877	     17.00482859	     -0.43252200	      1.45800767	    -37.96699984	      7.95594455	     -7.57955073	      2.43146452	    -15.18022280	      9.23225495	      2.49552862
      0.87050000	      3.19797297	     -2.21974663	      1.35329025	     -0.20141462	      1.03155537	      0.37022989	    -11.58153410	      5.67532442	      0.52371468	     -6.69340621	      3.18605956	    -12.40772593	      3.41272596	     17.05495872	     -0.28236881	      1.57864062	    -36.34795643	      7.82009219	     -7.64105735	      2.36516058	    -15.15603937	      9.15102669	      2.49291526
      0.87466667	      3.14622095	     -2.17046743	      1.40317230	     -0.19637462	      1.03163320	      0.37014545	    -11.92812206	      5.62571028	      0.40931500	     -6.46021269	      2.94409175	    -12.36808403	      3.48825483	     17.09721593	     -0.14555024	      1.70702069	    -34.70928609	      7.65751479	     -7.68353792	      2.30303459	    -15.13020630	      9.08341088	      2.48222678
